<?xml version="1.0" standalone="no"?>
<!DOCTYPE svg PUBLIC "-//W3C//DTD SVG 20010904//EN"
 "http://www.w3.org/TR/2001/REC-SVG-20010904/DTD/svg10.dtd">
<svg version="1.0" xmlns="http://www.w3.org/2000/svg"
 width="1280.000000pt" height="1185.000000pt" viewBox="0 0 1280.000000 1185.000000"
 preserveAspectRatio="xMidYMid meet">
<g transform="translate(0.000000,1185.000000) scale(0.100000,-0.100000)"
fill="#000000" stroke="none">
<path d="M10589 11845 c-3 -2 -66 -23 -139 -45 -371 -111 -996 -404 -1118
-523 -104 -101 -605 -835 -912 -1337 -46 -74 -106 -169 -134 -210 -69 -103
-204 -340 -276 -485 -58 -117 -87 -200 -216 -630 -79 -259 -314 -1095 -395
-1405 -39 -146 -92 -348 -119 -450 -27 -102 -57 -223 -66 -269 -11 -50 -24
-85 -32 -89 -11 -4 -213 28 -268 43 -14 4 -21 70 -34 335 -17 319 -78 1279
-105 1650 -14 184 -27 371 -30 415 -15 212 -68 742 -84 843 -21 127 -35 152
-88 152 -40 0 -93 -20 -111 -43 -12 -14 -11 -23 2 -59 15 -43 59 -386 71 -553
3 -49 15 -196 25 -325 68 -833 109 -1500 117 -1927 l6 -321 -39 -36 c-65 -59
-115 -80 -178 -73 -127 13 -1399 470 -1756 631 -52 23 -189 85 -305 137 -228
101 -528 251 -614 306 -36 23 -57 31 -64 24 -5 -5 -12 -42 -15 -81 l-5 -71 40
-37 c40 -37 366 -218 518 -288 315 -144 682 -293 883 -359 238 -78 652 -197
934 -270 147 -37 186 -52 323 -121 85 -44 157 -84 159 -91 3 -7 1 -36 -4 -65
-5 -29 -15 -90 -21 -134 -6 -45 -15 -87 -19 -93 -5 -9 -125 18 -426 93 -496
124 -584 144 -1064 241 -576 117 -1170 209 -1575 245 -178 15 -502 29 -570 24
-33 -2 -157 -9 -275 -15 -219 -11 -242 -13 -480 -49 -289 -43 -574 -115 -822
-206 -68 -25 -150 -55 -182 -66 -99 -35 -472 -228 -624 -323 -306 -192 -417
-303 -472 -472 -17 -52 -30 -113 -30 -142 0 -66 69 -277 118 -358 66 -111 222
-301 326 -399 276 -261 641 -507 843 -569 45 -14 88 -34 100 -47 12 -13 44
-70 71 -128 89 -189 132 -226 303 -265 55 -12 107 -29 114 -36 7 -8 43 -90 80
-182 108 -273 206 -437 342 -568 132 -129 246 -190 418 -224 105 -21 314 -16
449 9 198 38 489 142 714 255 105 52 155 63 166 35 14 -37 -6 -203 -48 -399
-39 -182 -57 -514 -35 -672 16 -120 57 -256 107 -358 104 -212 453 -533 814
-751 323 -195 755 -388 1049 -469 52 -15 132 -38 178 -51 46 -14 118 -32 160
-39 42 -8 130 -26 196 -39 378 -77 771 -80 1076 -7 162 38 343 119 447 198
110 83 246 272 361 498 196 388 259 763 196 1167 -42 268 -98 426 -257 737
-91 178 -259 444 -266 423 -1 -5 22 -157 52 -338 31 -181 60 -359 66 -395 18
-118 40 -349 40 -426 0 -101 -20 -316 -31 -327 -21 -23 -110 97 -161 216 -42
100 -96 296 -119 432 -27 167 -46 416 -59 776 -10 287 -40 725 -60 870 -5 36
-15 97 -24 135 -17 78 -20 125 -8 125 5 0 42 -30 82 -67 41 -36 124 -103 185
-149 112 -83 244 -210 309 -297 20 -27 81 -97 136 -155 133 -143 198 -227 276
-352 189 -306 330 -680 445 -1183 38 -166 76 -317 85 -334 35 -67 113 -27 152
79 76 204 40 461 -121 853 -81 196 -95 229 -120 275 -13 25 -64 119 -112 210
-114 214 -260 467 -350 605 -72 111 -386 537 -433 587 -30 33 -23 46 15 29 14
-7 209 -126 432 -265 934 -582 1102 -682 1366 -816 209 -105 303 -128 595
-145 151 -9 289 -24 414 -46 139 -24 269 -24 393 0 134 27 194 48 307 111 210
116 350 279 502 582 263 525 449 1238 506 1934 21 253 10 526 -28 734 -65 354
-251 711 -461 885 -97 80 -181 127 -333 184 -73 28 -141 58 -151 67 -29 26
-23 55 22 115 198 262 309 599 309 935 0 283 -72 532 -242 830 -110 195 -228
455 -233 517 -10 121 -123 524 -302 1082 -183 570 -209 630 -315 732 -100 96
-257 163 -381 163 -40 0 -76 -2 -78 -5z m-264 -1595 c0 -9 -24 -23 -62 -37
-78 -28 -87 -10 -15 30 50 29 77 31 77 7z m-167 -71 c-2 -6 -58 -43 -123 -81
-191 -112 -332 -244 -496 -463 -37 -49 -82 -104 -100 -121 -108 -100 -458
-320 -578 -364 -91 -33 -191 -41 -191 -16 0 27 204 271 330 395 133 131 292
264 368 308 26 15 72 44 102 64 75 50 208 115 375 184 241 99 323 124 313 94z
m-848 -34 c7 -8 15 -34 17 -58 4 -35 -1 -52 -30 -102 -52 -90 -129 -183 -209
-252 -112 -99 -130 -96 -136 22 -5 99 12 128 173 283 128 124 157 141 185 107z
m1368 -297 c19 -19 14 -77 -8 -114 -23 -37 -83 -89 -181 -157 -90 -63 -162
-100 -244 -127 -90 -30 -251 -99 -437 -189 -272 -131 -392 -169 -490 -157 -63
8 -83 18 -75 39 18 48 613 385 911 517 77 34 153 73 169 86 59 50 129 76 262
99 39 7 72 13 76 14 3 0 10 -4 17 -11z m-2024 -178 c25 -12 46 -25 46 -31 0
-5 -23 -49 -52 -97 -53 -89 -136 -182 -163 -182 -20 0 -19 15 5 78 14 37 18
64 14 92 -5 33 -3 42 20 65 14 14 26 35 26 45 0 15 30 41 56 50 1 0 22 -9 48
-20z m2346 -444 c0 -34 -223 -205 -421 -324 -298 -178 -632 -315 -849 -347
-113 -17 -198 -12 -207 11 -17 44 176 278 300 363 74 50 294 156 377 181 203
61 485 111 685 123 33 2 72 4 88 5 17 1 27 -3 27 -12z m-1713 -337 c78 -14 83
-22 90 -159 15 -271 -116 -550 -446 -949 -58 -69 -137 -162 -176 -206 -39 -44
-102 -118 -140 -165 -38 -47 -106 -128 -151 -180 -142 -166 -355 -461 -482
-668 -125 -204 -302 -551 -302 -592 0 -26 -15 -18 -15 8 -1 10 -4 54 -9 99 -5
50 -4 115 3 170 6 48 18 144 27 212 35 281 130 692 233 1013 27 84 59 187 71
228 29 97 133 377 164 438 13 26 29 65 36 87 7 22 55 124 107 227 89 178 191
336 230 356 17 9 222 45 433 76 121 17 246 19 327 5z m1817 -404 c88 -9 166
-21 173 -27 27 -22 11 -47 -84 -135 -223 -205 -400 -304 -638 -358 -54 -12
-259 -33 -385 -40 -386 -20 -702 -106 -969 -264 -152 -90 -179 -103 -186 -92
-10 17 108 153 253 292 184 177 334 283 567 399 407 203 788 271 1269 225z
m345 -747 c-82 -79 -326 -208 -719 -383 -91 -40 -226 -101 -300 -135 -74 -34
-335 -149 -580 -255 -615 -266 -676 -294 -1005 -453 -359 -172 -547 -273 -692
-368 -141 -93 -152 -95 -109 -21 14 23 34 78 46 122 34 129 80 250 114 299 60
87 660 555 970 757 261 170 535 296 766 350 118 28 331 30 520 5 327 -43 457
-44 635 -5 95 21 295 88 355 119 58 30 58 23 -1 -32z m-619 -683 c-3 -5 -45
-20 -95 -33 -162 -41 -317 -100 -485 -185 -200 -99 -349 -191 -800 -487 -699
-459 -934 -576 -1221 -605 -43 -4 -69 -3 -73 4 -4 6 3 13 16 16 13 3 61 14
108 24 47 11 114 30 150 44 140 53 415 217 620 372 614 462 661 495 845 602
238 139 443 218 645 248 98 15 298 15 290 0z m58 -507 c21 -21 13 -36 -34 -70
-53 -39 -128 -98 -290 -229 -151 -121 -186 -145 -309 -207 -120 -60 -169 -74
-252 -74 -175 1 -189 115 -32 256 106 95 208 154 312 181 33 8 117 38 186 65
134 52 188 67 291 80 98 11 115 11 128 -2z m-7737 -183 c57 -13 124 -32 151
-41 46 -15 48 -17 47 -52 -1 -49 -9 -66 -42 -92 l-28 -22 -104 26 c-57 14
-114 26 -125 26 -12 0 -54 -22 -94 -49 -114 -77 -225 -141 -296 -169 -59 -24
-77 -26 -200 -26 -134 1 -209 15 -217 41 -7 21 61 86 117 111 48 22 68 25 158
25 57 -1 120 -4 142 -8 38 -6 39 -6 73 47 65 101 114 142 213 176 49 17 92 31
96 31 4 1 53 -10 109 -24z m6580 -133 c-28 -20 -148 -72 -164 -72 -18 0 4 15
77 54 74 38 134 51 87 18z m1868 -5 c41 -7 76 -17 78 -23 4 -11 -238 -243
-312 -301 -53 -40 -128 -78 -195 -97 -76 -21 -250 -46 -327 -46 l-63 0 0 -37
c0 -51 41 -135 76 -160 16 -11 55 -30 86 -42 60 -24 87 -47 72 -60 -5 -4 -49
-17 -99 -30 -49 -12 -117 -34 -150 -48 -91 -39 -263 -117 -425 -193 -350 -164
-579 -217 -913 -213 -294 3 -508 32 -822 113 -258 66 -265 69 -265 86 0 22
231 126 461 208 353 124 709 185 1082 186 211 1 505 18 562 33 29 8 51 20 53
28 3 15 -84 102 -143 145 -20 15 -27 25 -20 32 22 22 518 274 643 326 192 81
291 105 432 105 63 0 148 -6 189 -12z m-2253 -190 c-54 -34 -156 -100 -225
-146 -345 -229 -439 -272 -684 -310 -152 -24 -417 -38 -417 -21 0 22 128 66
430 150 363 101 637 207 865 334 134 75 154 71 31 -7z m-5021 24 c102 -15 283
-59 455 -111 126 -38 196 -51 450 -80 160 -19 416 -69 533 -105 218 -66 619
-258 832 -397 52 -35 58 -54 15 -51 -380 27 -645 26 -900 -2 -69 -8 -195 -22
-280 -30 -85 -9 -263 -29 -395 -46 -324 -40 -396 -47 -640 -64 -185 -13 -235
-12 -420 1 -213 15 -318 33 -462 79 -89 28 -106 41 -128 104 -31 89 -9 204 60
308 105 158 365 369 500 404 39 10 278 4 380 -10z m-945 -93 c0 -6 -17 -32
-38 -57 -21 -25 -51 -65 -65 -88 -31 -49 -53 -63 -99 -63 -42 0 -192 -32 -282
-60 -111 -35 -404 -176 -621 -300 -110 -62 -272 -151 -361 -197 -238 -123
-251 -113 -76 57 176 172 391 340 531 417 36 20 97 54 134 76 94 55 330 148
462 181 150 38 415 60 415 34z m-156 -405 c4 -10 -8 -37 -33 -73 -22 -32 -53
-93 -69 -136 l-28 -79 -295 -168 c-390 -223 -605 -329 -733 -362 -54 -14 -109
-25 -122 -25 -67 0 -21 70 134 204 164 141 395 297 692 469 170 98 216 120
335 161 84 29 111 31 119 9z m-2071 -91 c23 -20 22 -46 -5 -85 -47 -67 -71
-87 -104 -87 -38 0 -217 63 -222 78 -4 13 63 88 92 104 12 7 48 17 81 23 64
13 118 1 158 -33z m10087 -197 c96 -28 462 -200 467 -221 4 -13 -131 -108
-191 -135 -49 -21 -29 -24 -299 42 -133 32 -303 62 -452 79 -55 7 -104 14
-108 17 -9 5 14 32 101 121 127 129 272 158 482 97z m-4716 -212 c9 -20 13
-39 9 -44 -4 -4 -127 -55 -273 -112 -399 -159 -614 -260 -968 -454 -158 -86
-504 -311 -655 -425 -125 -94 -342 -266 -421 -333 -39 -34 -129 -108 -201
-165 -71 -58 -166 -136 -210 -175 -122 -107 -173 -149 -254 -204 -99 -68 -142
-67 -119 1 5 15 17 30 27 33 15 4 51 53 51 69 0 3 -31 6 -70 6 -52 0 -70 3
-70 13 0 29 88 141 394 502 181 214 628 685 852 899 l201 191 174 57 c318 104
627 168 806 168 84 0 271 -24 357 -46 72 -19 153 -8 261 35 39 15 75 26 81 24
6 -2 18 -20 28 -40z m776 -27 c0 -14 -190 -249 -524 -646 -298 -354 -512 -548
-725 -654 -141 -71 -238 -96 -411 -105 l-135 -7 -90 -49 c-49 -27 -115 -65
-145 -85 -97 -64 -210 -122 -227 -116 -23 9 -13 117 17 181 36 78 228 262 374
359 144 96 405 249 791 464 267 148 416 235 550 320 141 89 362 240 422 289
35 28 90 63 101 63 1 0 2 -6 2 -14z m-3727 -41 c60 -14 107 -38 107 -55 0 -5
-79 -73 -175 -150 -96 -78 -199 -163 -228 -189 -182 -165 -494 -363 -672 -429
-82 -30 -231 -61 -322 -67 -137 -9 -136 -14 -7 180 152 227 265 345 469 489
153 108 332 186 490 215 33 6 69 12 80 15 47 9 205 4 258 -9z m1144 -11 c2 -6
-47 -50 -109 -97 -62 -47 -221 -174 -353 -282 -522 -427 -839 -674 -975 -760
-25 -16 -75 -48 -112 -72 -71 -46 -384 -203 -405 -203 -7 0 -13 11 -13 24 0
34 47 191 75 253 76 169 312 408 550 559 33 21 128 90 210 154 208 162 322
238 462 308 128 64 145 68 378 106 155 25 286 30 292 10z m3695 -34 c62 -22
239 -69 393 -104 473 -109 670 -176 1082 -371 344 -163 920 -480 931 -512 5
-16 -27 -5 -208 72 -74 31 -178 72 -230 90 -52 19 -146 52 -208 74 -195 71
-415 115 -451 92 -11 -7 -4 -23 36 -78 27 -37 65 -93 85 -123 19 -31 61 -84
93 -118 93 -100 187 -137 400 -157 39 -3 79 -9 90 -12 l20 -6 -20 -8 c-50 -19
-437 -5 -595 22 -170 29 -356 111 -493 218 -43 33 -219 195 -390 359 -172 165
-373 348 -447 407 -205 165 -210 169 -210 183 0 16 -7 18 122 -28z m2303 -29
c39 -10 89 -29 112 -43 72 -42 200 -158 262 -237 92 -120 218 -338 204 -352
-19 -19 -1353 408 -1390 445 -12 12 7 19 108 37 129 23 216 49 332 101 51 22
108 46 127 54 50 19 163 17 245 -5z m-840 -164 c12 -10 15 -16 6 -21 -15 -10
-48 2 -55 19 -7 19 23 20 49 2z m-3881 -258 c-46 -51 -438 -384 -524 -445
-208 -147 -967 -648 -1135 -749 -160 -97 -291 -165 -316 -165 -18 0 -8 26 29
75 21 28 65 88 99 135 73 101 272 300 398 397 261 203 581 381 1126 629 125
56 244 112 265 123 22 11 48 20 58 21 19 0 19 0 0 -21z m1267 -106 c-5 -11
-46 -125 -89 -254 -44 -129 -109 -313 -145 -409 -35 -96 -74 -206 -87 -245
-29 -87 -175 -403 -231 -499 -84 -143 -190 -287 -270 -366 -19 -19 -60 -66
-91 -105 -117 -145 -383 -384 -404 -362 -3 3 0 21 7 40 11 31 10 41 -12 91
-13 31 -28 54 -34 52 -5 -1 -27 -30 -48 -64 l-39 -61 -2 -123 c-3 -100 -8
-140 -30 -213 -32 -105 -98 -235 -166 -326 -63 -84 -175 -199 -195 -199 -8 0
-15 2 -15 3 0 2 27 57 59 123 39 78 82 192 126 329 85 266 95 314 95 455 0 97
-3 120 -20 148 -11 17 -23 32 -27 32 -5 0 -23 -28 -40 -63 -98 -188 -269 -434
-370 -532 -99 -97 -243 -170 -243 -124 0 6 98 142 218 302 120 161 258 351
307 422 174 255 250 329 330 323 l40 -3 18 60 c90 293 220 528 456 820 179
221 470 486 749 683 138 97 180 115 153 65z m196 -220 c87 -156 175 -470 228
-813 62 -410 86 -741 92 -1281 5 -464 4 -479 -41 -479 -30 0 -47 21 -80 95
-54 126 -98 306 -126 524 -10 79 -21 145 -23 147 -2 2 -9 -30 -15 -72 -7 -41
-28 -150 -48 -242 -35 -161 -36 -172 -31 -322 3 -101 11 -177 22 -218 27 -101
4 -96 -38 8 -116 289 -239 754 -301 1135 -36 221 -66 515 -66 646 0 133 58
312 169 518 164 306 213 391 225 391 7 0 22 -17 33 -37z m3482 -259 c15 -11
19 -20 13 -26 -7 -7 -21 -3 -41 11 -17 13 -31 24 -31 27 0 10 38 3 59 -12z
m-924 -323 c83 -22 168 -47 190 -55 113 -41 373 -169 393 -194 15 -19 16 -76
2 -103 -16 -30 -64 -49 -122 -49 -63 0 -388 105 -509 165 -94 45 -205 128
-236 174 -27 41 -30 86 -5 101 28 17 125 4 287 -39z m-4208 -258 c17 -55 0
-84 -113 -203 -135 -140 -453 -379 -616 -461 -100 -50 -102 -37 -15 81 125
168 345 380 504 486 124 83 206 133 218 134 6 0 15 -17 22 -37z m1213 -555
c-1 -108 -32 -772 -40 -853 -30 -296 -90 -545 -150 -617 -17 -21 -36 -38 -41
-38 -39 0 -124 264 -150 465 -24 185 -55 385 -64 406 -4 10 14 41 51 90 35 45
76 116 106 182 26 59 63 136 83 171 64 115 205 248 205 194z m-618 -745 c33
-39 51 -108 56 -216 7 -162 -11 -229 -121 -458 -51 -105 -117 -179 -160 -179
-39 0 -111 55 -139 107 -52 96 -63 153 -63 339 0 195 2 204 73 252 53 36 311
171 328 172 6 0 18 -8 26 -17z"/>
</g>
</svg>
